<svg version="1.2" xmlns="http://www.w3.org/2000/svg" width="512" height="512">
    <path d="M191.9 278.5v-20.9h115.4q26.4 0 44.5-18.5 18.3-18.5 18.3-52.6 0-25.2-19.1-45.2-19.2-20.2-43.7-20.2H142.9V496h-19.1V100.3h183.5q32.5 0 57.2 26.3 24.8 26 24.8 59.9 0 41.6-24 66.8-23.9 25.2-58 25.2zm0 41.6v-20.8h115.5q41.5 0 71.3-31.5 29.8-31.9 29.8-81.3 0-42.6-30.6-74.7-30.3-32.4-70.5-32.4H104.7V496H85.5V58.6h221.9q31.7 0 59.3 17.6 28 17.7 44.5 47.5 16.5 29.5 16.5 62.8 0 57-35.7 95.4-35.4 38.2-84.6 38.2zm0 41.7v-20.9h115.5q37.2 0 69.1-19.9 32-20 51.1-55.6 19.2-35.8 19.2-78.9 0-39.1-19.2-73.2-18.9-34.5-51.1-55t-69.1-20.5H66.3V496H47.2V16.9h260.2q41.7 0 78.5 23.5 36.7 23.1 58.2 62.5 21.8 39 21.8 83.6 0 51.5-20.4 90.5-20.3 39.1-55.1 61l49.5 158h-20.3l-47.3-148.1q-10.7 4.6-16.2 6.3L400.5 496h-20.2l-43.4-136.8q-2.4.5-17 2L361.1 496h-20.2l-40.7-134.2h-17.3L321.7 496h-20.2l-39.1-134.2zm-10.6-199.1V496h-19.2V141.9h145.3q17.8 0 30.6 13.3 13 13 13 31.3 0 50.3-43.6 50.3H191.9V216h115.5q11.4 0 17.8-6.4 6.6-6.6 6.6-23.1 0-10.2-7.1-16.8-7-7-17.3-7z" style="fill:#1e293b"/>
</svg>
